PathFileType	4	(X/Y/Z)	C:/Users/labor/Downloads/static_updated_hjc.trc	
DataRate	CameraRate	NumFrames	NumMarkers	Units	OrigDataRate	OrigDataStartFrame	OrigNumFrames	
200.00	200.00	4	69	mm	200.00	252	175	
Frame#	Time	FHD			LBHD			RBHD			RBAR			LBAR			RASI			RSACR			LSACR			LASI			USACR			C7			CLAV			T10			RSHO			LSHO			LTHI1			LTHI3			LTHI2			LTHI4			LLFC			LMFC			LTIB1			LTIB2			LTIB3			LTIB4			LMMAL			LLMAL			LHEE			LMT1			LMT5			LMT3			RTHI1			RTHI2			RTHI3			RTHI4			RLFC			RMFC			RTIB1			RTIB3			RTIB2			RTIB4			RLMAL			RMMAL			RHEE			RMT5			RMT1			RMT3			LMEP			LLEP			LDUPA			LMUPA			LUUPA			LUL			LRAD			LRFIN			RUL			RRAD			RUFIN			RMEP			RLEP			RMUPA			RDUPA			RUUPA			LAJC			RAJC			LKJC			RKJC			RHJC			LHJC			
		X1	Y1	Z1	X2	Y2	Z2	X3	Y3	Z3	X4	Y4	Z4	X5	Y5	Z5	X6	Y6	Z6	X7	Y7	Z7	X8	Y8	Z8	X9	Y9	Z9	X10	Y10	Z10	X11	Y11	Z11	X12	Y12	Z12	X13	Y13	Z13	X14	Y14	Z14	X15	Y15	Z15	X16	Y16	Z16	X17	Y17	Z17	X18	Y18	Z18	X19	Y19	Z19	X20	Y20	Z20	X21	Y21	Z21	X22	Y22	Z22	X23	Y23	Z23	X24	Y24	Z24	X25	Y25	Z25	X26	Y26	Z26	X27	Y27	Z27	X28	Y28	Z28	X29	Y29	Z29	X30	Y30	Z30	X31	Y31	Z31	X32	Y32	Z32	X33	Y33	Z33	X34	Y34	Z34	X35	Y35	Z35	X36	Y36	Z36	X37	Y37	Z37	X38	Y38	Z38	X39	Y39	Z39	X40	Y40	Z40	X41	Y41	Z41	X42	Y42	Z42	X43	Y43	Z43	X44	Y44	Z44	X45	Y45	Z45	X46	Y46	Z46	X47	Y47	Z47	X48	Y48	Z48	X49	Y49	Z49	X50	Y50	Z50	X51	Y51	Z51	X52	Y52	Z52	X53	Y53	Z53	X54	Y54	Z54	X55	Y55	Z55	X56	Y56	Z56	X57	Y57	Z57	X58	Y58	Z58	X59	Y59	Z59	X60	Y60	Z60	X61	Y61	Z61	X62	Y62	Z62	X63	Y63	Z63	X64	Y64	Z64	X65	Y65	Z65	X66	Y66	Z66	X67	Y67	Z67	X68	Y68	Z68	X69	Y69	Z69	

88	0.435	115.55992	930.08167	1728.94824	285.17581	852.40619	1696.32788	240.64378	1005.26056	1725.60071	2013.74316	2007.89209	28.07243	1903.40479	-212.59221	23.68842	157.12466	1062.32556	969.86243	346.68210	958.29175	977.06561	344.15314	915.94495	973.06964	152.03987	813.17035	974.21552	337.44070	933.17358	985.78339	319.22766	924.63940	1481.09460	163.09265	925.11072	1432.29431	331.93359	934.78058	1169.63330	298.71747	1086.29089	1467.69751	285.43198	764.06262	1461.53894	221.07851	732.43555	813.44043	188.44186	732.46838	790.69885	235.84323	724.01831	774.47717	190.49417	724.15643	726.30920	260.61050	743.14185	499.32941	235.55405	847.66272	469.68750	319.49103	731.04480	416.47656	295.75998	714.61273	378.05923	342.84000	727.91180	366.56516	308.93094	709.86682	313.79355	251.64478	822.49805	96.97089	282.07684	736.66217	76.66469	331.21118	786.22662	35.49268	111.28338	775.05121	41.05225	155.17360	703.80365	29.48827	128.80421	724.55463	33.64412	208.07951	1143.26208	817.36926	208.74550	1148.73706	784.83643	161.54123	1130.32996	781.72015	187.85423	1145.99402	721.77930	255.46176	1124.44409	500.68759	241.92834	1003.02112	482.84796	306.19870	1136.76440	433.04059	339.40909	1142.57349	382.95782	289.19363	1154.30896	385.62646	312.01892	1155.48596	323.83737	287.93195	1132.25269	82.87896	248.71753	1049.72888	100.31134	328.37274	1073.73779	33.22961	172.48413	1181.85803	28.89364	119.21484	1119.17639	45.83947	130.73563	1159.88110	35.03049	214.34250	502.34937	1296.47449	272.26834	489.58374	1395.59412	304.96588	564.04266	1389.10413	323.62863	622.94617	1381.70544	297.50412	635.53723	1422.43579	226.41528	232.68604	1365.41626	167.81319	247.46367	1343.00500	157.51479	153.45500	1353.29529	246.27647	1608.10242	1396.07373	196.09996	1592.86365	1400.80090	180.59390	1697.88367	1400.78687	231.81776	1357.98901	1299.68237	283.41544	1363.67639	1401.99951	320.50543	1267.26672	1400.32056	285.45078	1284.63257	1431.97900	314.35852	1210.33301	1425.48035	266.86081	779.58011	86.81779	268.32474	1090.99078	91.59515	248.08228	795.40228	484.50845	248.69505	1063.73260	491.76778	247.28268	997.74957	977.82291	244.74029	873.17197	979.99945 
89	0.440	115.65883	930.08740	1728.95801	285.24716	852.40808	1696.31055	240.74507	1005.25702	1725.58496	2013.74695	2007.88391	28.07989	1903.33337	-212.69182	23.75268	157.07585	1062.32166	969.85797	346.69217	958.31757	977.05487	343.91577	915.89313	973.10956	151.99742	813.16730	974.19873	337.39749	933.17749	985.78455	319.26660	924.60840	1481.06274	163.09625	925.11334	1432.29944	331.89035	934.77875	1169.60315	298.73694	1086.29443	1467.67627	285.44312	764.06030	1461.51294	221.05060	732.44019	813.43427	188.44208	732.47552	790.67865	235.80717	724.01111	774.47198	190.46997	724.16748	726.30841	260.59183	743.14447	499.32837	235.52179	847.67322	469.68689	319.47403	731.04535	416.48154	295.75082	714.61035	378.06226	342.83911	727.83704	366.62762	308.87024	709.82587	313.82819	251.72206	822.37103	96.93452	282.07584	736.67950	76.66248	331.20819	786.22748	35.49032	111.28716	775.04736	41.04730	155.17618	703.80731	29.48818	128.79074	724.54797	33.65011	208.03893	1143.26392	817.36011	208.83383	1148.43127	784.60394	161.49684	1130.32349	781.72021	187.81699	1145.96631	721.75391	255.45038	1124.44495	500.69037	241.91460	1003.02209	482.84656	306.18420	1136.75879	433.04388	339.39835	1142.56909	382.96353	289.17133	1154.65637	385.67349	312.03186	1155.48303	323.82996	287.92920	1132.25366	82.88582	248.72697	1049.71021	100.29744	328.37878	1073.73755	33.22461	172.48062	1181.85876	28.88552	119.20960	1119.18188	45.83183	130.73132	1159.87610	35.03553	214.31635	502.35675	1296.44629	272.26270	489.58633	1395.54639	304.94641	564.04016	1389.09204	323.61755	622.94324	1381.67383	297.50003	635.53479	1422.41724	226.40172	232.68857	1365.36426	167.80591	247.47333	1342.94958	157.54951	153.51859	1353.14697	246.22769	1608.11914	1396.01672	196.06273	1592.85278	1400.75549	180.55484	1697.87427	1400.72522	231.78889	1357.98145	1299.63477	283.39819	1363.66943	1401.96338	320.48856	1267.26221	1400.25696	285.45419	1284.62952	1431.93945	314.35721	1210.32495	1425.43079	266.89895	779.52527	86.79850	268.32809	1090.98193	91.59163	248.05681	795.40884	484.50763	248.68249	1063.73352	491.76846	247.23667	997.74957	977.82126	244.69746	873.17239	979.99164 
90	0.445	115.73495	930.08466	1728.96741	285.31885	852.40613	1696.29456	240.84375	1005.24207	1725.56934	2013.75354	2007.85913	28.05129	1903.47229	-212.44217	23.57976	157.02837	1062.32043	969.85394	346.64893	958.33044	977.05127	343.87665	915.90381	973.09790	151.97168	813.17120	974.19434	337.34906	933.18481	985.78351	319.31113	924.61462	1481.04199	163.10381	925.10944	1432.30249	331.86609	934.77374	1169.58691	298.74554	1086.29309	1467.65491	285.44861	764.05237	1461.48828	221.01770	732.43988	813.43439	188.36876	732.47437	790.69476	235.78777	724.00452	774.46735	190.44110	724.17737	726.30548	260.58472	743.14832	499.33029	235.50783	847.67389	469.68277	319.46170	731.04968	416.48465	295.73611	714.62128	378.05893	342.62448	727.97614	366.64111	308.93250	709.88879	313.78046	251.63809	822.52258	96.99196	282.08142	736.67194	76.65911	331.21155	786.23792	35.48906	111.28439	775.05078	41.04361	155.17708	703.80920	29.48372	128.79564	724.55432	33.63792	207.99927	1143.26868	817.36279	208.79097	1148.44019	784.58765	161.47597	1130.33008	781.70087	187.78322	1145.99060	721.75665	255.43063	1124.43677	500.68628	241.89865	1003.02094	482.84726	306.17566	1136.76746	433.04962	339.39038	1142.58215	382.97449	289.18301	1154.38806	385.63489	312.00479	1155.49585	323.83670	287.92841	1132.24902	82.88081	248.71938	1049.71094	100.29923	328.37515	1073.73193	33.22539	172.47426	1181.86389	28.88762	119.21536	1119.17432	45.83113	130.74976	1159.86646	35.00498	214.29907	502.42361	1296.40308	272.26743	489.57584	1395.50745	304.92618	564.03827	1389.03015	323.60355	622.94800	1381.63965	297.48721	635.53278	1422.39502	226.39993	232.68552	1365.29639	167.79277	247.46989	1342.89954	157.55064	153.17523	1353.06519	246.18912	1608.11438	1395.94922	196.01933	1592.84143	1400.70300	180.51343	1697.85339	1400.66736	231.76657	1357.96411	1299.58240	283.41208	1363.68079	1401.94739	320.47638	1267.24939	1400.20581	285.44586	1284.61865	1431.88965	314.36386	1210.50500	1425.46338	266.85976	779.59726	86.82553	268.32389	1090.97998	91.59002	248.04627	795.41110	484.50653	248.66464	1063.72885	491.76677	247.18871	997.75262	977.81873	244.66037	873.17801	979.98892 
91	0.450	115.81814	930.09613	1728.97449	285.38434	852.40619	1696.29224	240.91853	1005.24493	1725.55664	2013.74414	2007.89148	28.07214	1903.46606	-212.48503	23.62072	156.98723	1062.31873	969.85144	346.55759	958.32727	977.06177	343.83270	915.91022	973.08618	151.92674	813.15546	974.19849	337.13358	933.13446	985.66693	319.28476	924.61096	1481.00500	163.10451	925.11157	1432.30798	331.82874	934.75952	1169.56848	298.75607	1086.28943	1467.63025	285.45721	764.04639	1461.47021	220.98856	732.44049	813.42871	188.35739	732.49579	790.69403	235.73088	723.98627	774.45947	190.42200	724.17731	726.31323	260.56815	743.15448	499.32874	235.48079	847.69592	469.68622	319.45001	731.04651	416.48502	295.73578	714.61499	378.05444	342.75699	727.93823	366.59195	308.90494	710.50336	313.56619	251.67143	822.69855	97.08017	282.06787	736.69031	76.67126	331.20255	786.22693	35.49039	111.27942	775.05054	41.04490	155.17104	703.81549	29.48054	128.80263	724.55768	33.63854	207.96912	1143.26575	817.35254	208.74864	1148.43445	784.58368	161.43587	1130.33545	781.69470	187.74966	1145.98511	721.76025	255.42635	1124.44543	500.68805	241.88959	1003.01904	482.85040	306.16724	1136.76233	433.05112	339.41119	1142.49475	382.88248	289.16922	1154.37476	385.63382	312.00830	1155.47046	323.84122	287.93097	1132.24414	82.88122	248.70699	1049.71179	100.31001	328.37421	1073.73535	33.22797	172.47810	1181.85779	28.88588	119.21283	1119.18079	45.83508	130.74127	1159.87646	35.02096	214.23529	502.49176	1296.38965	272.25906	489.56061	1395.45654	304.91138	564.03925	1388.97729	323.59326	622.94281	1381.60083	297.47073	635.53632	1422.37146	226.38893	232.68898	1365.23157	167.78940	247.48189	1342.83508	157.61572	153.27469	1352.91101	246.15067	1608.09277	1395.89502	195.97716	1592.82861	1400.65430	180.45679	1697.85767	1400.59216	231.74040	1357.96094	1299.52930	283.17276	1363.44995	1401.78577	320.46533	1267.24719	1400.16577	285.42154	1284.61377	1431.83044	314.33594	1210.32031	1425.34436	266.86965	779.69443	86.87571	268.31898	1090.97797	91.59562	248.02447	795.42520	484.50748	248.65797	1063.73224	491.76923	247.06040	997.72659	977.75919	244.53016	873.14496	979.93271 
